<svg width="180" height="45" viewBox="0 0 180 45" fill="none" xmlns="http://www.w3.org/2000/svg">
  <!-- Background rounded rectangle -->
  <rect x="2" y="2" width="176" height="41" rx="8" fill="white" stroke="#E5E7EB" stroke-width="1.5"/>
  
  <!-- Heart icon -->
  <path d="M28 18C28 15.2 26 13 23.5 13C22 13 21 13.8 20 15.2C19 13.8 18 13 16.5 13C14 13 12 15.2 12 18C12 21.5 15 24 20 28.5C25 24 28 21.5 28 18Z" fill="#6366F1"/>
  
  <!-- Message bubble overlapping heart -->
  <g opacity="0.95">
    <rect x="16" y="20" width="20" height="13" rx="6.5" fill="#8B5CF6"/>
    <path d="M26 33L24.5 36L23 33H26Z" fill="#8B5CF6"/>
  </g>
  
  <!-- Text: NewsHub with styling -->
  <text x="44" y="28" font-family="'Segoe UI', 'Arial', sans-serif" font-size="20" font-weight="700" fill="#1F2937" letter-spacing="-0.3">
    News<tspan fill="#6366F1">Hub</tspan>
  </text>
  
  <!-- Small decorative dot -->
  <circle cx="130" cy="26" r="2" fill="#6366F1" opacity="0.5"/>
</svg>
